<svg xmlns="http://www.w3.org/2000/svg" viewBox="0 0 264.3 53.7">
  <defs>
    <style>
      .cls-1 {
        fill: #fff;
      }
    </style>
  </defs>
  <g id="BlueBOLT_Logo" data-name="BlueBOLT Logo" transform="translate(-64 -112)">
    <g id="Group_296" data-name="Group 296" transform="translate(64 111.9)">
      <path id="Path_764" data-name="Path 764" class="cls-1" d="M103.9,31.1H88.5V25.8a6.042,6.042,0,0,1,.5-2.4,6.9,6.9,0,0,1,1.3-2,5.328,5.328,0,0,1,2-1.3,6.874,6.874,0,0,1,2.4-.5h2.9a6.042,6.042,0,0,1,2.4.5,6.9,6.9,0,0,1,2,1.3,5.328,5.328,0,0,1,1.3,2,6.874,6.874,0,0,1,.5,2.4v5.3Zm4.3,11.1V40.8l-4.3-.7v2.4a6.042,6.042,0,0,1-.5,2.4,6.9,6.9,0,0,1-1.3,2,5.328,5.328,0,0,1-2,1.3,6.874,6.874,0,0,1-2.4.5H94.8a6.042,6.042,0,0,1-2.4-.5,6.9,6.9,0,0,1-2-1.3,5.328,5.328,0,0,1-1.3-2,6.874,6.874,0,0,1-.5-2.4v-8h19.7V26a11.09,11.09,0,0,0-.8-4.1,10.832,10.832,0,0,0-5.7-5.7,11.5,11.5,0,0,0-4.1-.8H94.8a11.09,11.09,0,0,0-4.1.8A10.832,10.832,0,0,0,85,21.9a9.68,9.68,0,0,0-.8,4.1V42.2a11.09,11.09,0,0,0,.8,4.1A10.832,10.832,0,0,0,90.7,52a11.5,11.5,0,0,0,4.1.8h2.9a11.09,11.09,0,0,0,4.1-.8,9.756,9.756,0,0,0,3.4-2.3,11.34,11.34,0,0,0,2.3-3.4,13.026,13.026,0,0,0,.7-4.1M75.5,52.1v-36H71.2V42.5a6.042,6.042,0,0,1-.5,2.4,6.9,6.9,0,0,1-1.3,2,5.328,5.328,0,0,1-2,1.3,6.874,6.874,0,0,1-2.4.5H62a6.042,6.042,0,0,1-2.4-.5,6.9,6.9,0,0,1-2-1.3,5.328,5.328,0,0,1-1.3-2,6.874,6.874,0,0,1-.5-2.4V16.1H51.5V42.2a11.09,11.09,0,0,0,.8,4.1,9.756,9.756,0,0,0,2.3,3.4A11.34,11.34,0,0,0,58,52a11.5,11.5,0,0,0,4.1.8h1.1a10.156,10.156,0,0,0,4.9-1.2,10.361,10.361,0,0,0,3.7-3.2l2.4,3.7ZM41.3,1.7H37V52.1h4.3ZM23.8,15.3a7.79,7.79,0,0,1-.6,3.1A8.989,8.989,0,0,1,21.5,21a7.821,7.821,0,0,1-2.6,1.7,8.149,8.149,0,0,1-3.1.6H4.5V6H15.7a7.79,7.79,0,0,1,3.1.6,8.989,8.989,0,0,1,2.6,1.7,7.821,7.821,0,0,1,1.7,2.6,8.149,8.149,0,0,1,.6,3.1v1.3Zm0,24.4a7.79,7.79,0,0,1-.6,3.1,7.386,7.386,0,0,1-1.7,2.5A7.821,7.821,0,0,1,18.9,47a8.149,8.149,0,0,1-3.1.6H4.5V27.7H15.7a7.79,7.79,0,0,1,3.1.6A8.989,8.989,0,0,1,21.4,30a8.518,8.518,0,0,1,1.7,2.5,8.149,8.149,0,0,1,.6,3.1v4.1Zm4.6,0V36.5a12.7,12.7,0,0,0-.5-3.4A12.318,12.318,0,0,0,26.5,30a17.086,17.086,0,0,0-2.1-2.6,10.148,10.148,0,0,0-2.7-1.9,13.089,13.089,0,0,0,2.7-1.9,16.379,16.379,0,0,0,2.1-2.5,16.386,16.386,0,0,0,1.4-3,12.7,12.7,0,0,0,.5-3.4v-.5a11.172,11.172,0,0,0-1-4.8,13.442,13.442,0,0,0-2.7-4,12.283,12.283,0,0,0-4-2.7,12.873,12.873,0,0,0-4.8-1H0V52.1H16a11.172,11.172,0,0,0,4.8-1,11.794,11.794,0,0,0,4-2.7,13,13,0,0,0,2.7-3.9,14.143,14.143,0,0,0,.9-4.8"/>
    </g>
    <g id="Group_297" data-name="Group 297" transform="translate(64 111.9)">
      <path id="Path_765" data-name="Path 765" class="cls-1" d="M246.4,6V1.7H217.8V6h12V52.1h4.5V6ZM216.8,52.1V47.8H197.5V1.7H193V52.1h23.8ZM178.4,40.4a7.79,7.79,0,0,1-.6,3.1,8.989,8.989,0,0,1-1.7,2.6,8.518,8.518,0,0,1-2.5,1.7,8.149,8.149,0,0,1-3.1.6h-3.2a7.79,7.79,0,0,1-3.1-.6,8.989,8.989,0,0,1-2.6-1.7,7.821,7.821,0,0,1-1.7-2.6,8.149,8.149,0,0,1-.6-3.1v-27a7.79,7.79,0,0,1,.6-3.1,7.385,7.385,0,0,1,1.7-2.5A5.46,5.46,0,0,1,164,6a8.149,8.149,0,0,1,3.1-.6h3.2a7.79,7.79,0,0,1,3.1.6,7.386,7.386,0,0,1,2.5,1.7,8.518,8.518,0,0,1,1.7,2.5,8.149,8.149,0,0,1,.6,3.1V40.4Zm4.5,0v-27a11.172,11.172,0,0,0-1-4.8,10.537,10.537,0,0,0-2.7-3.9A15.1,15.1,0,0,0,175.3,2a12.873,12.873,0,0,0-4.8-1H167a11.172,11.172,0,0,0-4.8,1,11.794,11.794,0,0,0-4,2.7,13,13,0,0,0-2.7,3.9,12.873,12.873,0,0,0-1,4.8V40.5a11.172,11.172,0,0,0,1,4.8,10.537,10.537,0,0,0,2.7,3.9,14.08,14.08,0,0,0,4,2.7,12.873,12.873,0,0,0,4.8,1h3.6a11.172,11.172,0,0,0,4.8-1,10.537,10.537,0,0,0,3.9-2.7,15.1,15.1,0,0,0,2.7-3.9,12.951,12.951,0,0,0,.9-4.9M142.1,15.3a7.79,7.79,0,0,1-.6,3.1,8.989,8.989,0,0,1-1.7,2.6,7.821,7.821,0,0,1-2.6,1.7,8.149,8.149,0,0,1-3.1.6H122.9V6H134a7.79,7.79,0,0,1,3.1.6,8.989,8.989,0,0,1,2.6,1.7,7.821,7.821,0,0,1,1.7,2.6A8.149,8.149,0,0,1,142,14v1.3Zm0,24.4a7.79,7.79,0,0,1-.6,3.1,7.385,7.385,0,0,1-1.7,2.5,7.821,7.821,0,0,1-2.6,1.7,8.149,8.149,0,0,1-3.1.6H122.9V27.7H134a7.79,7.79,0,0,1,3.1.6,8.989,8.989,0,0,1,2.6,1.7,8.518,8.518,0,0,1,1.7,2.5,8.149,8.149,0,0,1,.6,3.1v4.1Zm4.5,0V36.5a12.7,12.7,0,0,0-.5-3.4,12.319,12.319,0,0,0-1.4-3.1,17.086,17.086,0,0,0-2.1-2.6,10.148,10.148,0,0,0-2.7-1.9,13.089,13.089,0,0,0,2.7-1.9,16.379,16.379,0,0,0,2.1-2.5,16.385,16.385,0,0,0,1.4-3,12.7,12.7,0,0,0,.5-3.4v-.5a11.172,11.172,0,0,0-1-4.8,11.794,11.794,0,0,0-2.7-4,12.283,12.283,0,0,0-4-2.7,12.873,12.873,0,0,0-4.8-1h-16V52.1h16a11.172,11.172,0,0,0,4.8-1,11.794,11.794,0,0,0,4-2.7,13,13,0,0,0,2.7-3.9,10.579,10.579,0,0,0,1-4.8"/>
    </g>
    <g id="Group_298" data-name="Group 298" transform="translate(64 111.9)">
      <path id="Path_766" data-name="Path 766" class="cls-1" d="M170.5,53.8H167a15.023,15.023,0,0,1-5.2-1,14.169,14.169,0,0,1-4.3-2.9,13.714,13.714,0,0,1-2.9-4.2,13.024,13.024,0,0,1-1-5.2V13.4a15.023,15.023,0,0,1,1-5.2A13.714,13.714,0,0,1,157.5,4,13.082,13.082,0,0,1,167,.1h3.6a15.023,15.023,0,0,1,5.2,1,14.169,14.169,0,0,1,7.1,7.1,13.024,13.024,0,0,1,1,5.2V40.5a15.023,15.023,0,0,1-1,5.2,14.169,14.169,0,0,1-7.1,7.1A13.511,13.511,0,0,1,170.5,53.8ZM167,2a10.489,10.489,0,0,0-4.4.9A11.349,11.349,0,0,0,159,5.3a9.9,9.9,0,0,0-2.4,3.6,11.174,11.174,0,0,0-.9,4.4V40.4a10.489,10.489,0,0,0,.9,4.4,11.349,11.349,0,0,0,2.4,3.6,12.593,12.593,0,0,0,3.6,2.4,11.174,11.174,0,0,0,4.4.9h3.6a10.489,10.489,0,0,0,4.4-.9,11.349,11.349,0,0,0,3.6-2.4,9.9,9.9,0,0,0,2.4-3.6,11.174,11.174,0,0,0,.9-4.4v-27A10.489,10.489,0,0,0,181,9a11.031,11.031,0,0,0-6-6,11.174,11.174,0,0,0-4.4-.9H167Zm68.4,51.1h-6.5V7h-12V.7h30.6V7h-12V53.1Zm-4.5-2h2.5V5h12V2.7H218.8V5h12V51.1Zm-13.1,2H192V.7h6.5V46.8h19.3Zm-23.8-2h21.8V48.8H196.5V2.7H194Zm-59.8,2h-17V.7h17a15.023,15.023,0,0,1,5.2,1,14.169,14.169,0,0,1,4.3,2.9,13.082,13.082,0,0,1,3.9,9.5v.5a15.012,15.012,0,0,1-.5,3.7,9.884,9.884,0,0,1-1.5,3.3,14.422,14.422,0,0,1-2.2,2.7c-.5.4-.9.8-1.4,1.2a17.409,17.409,0,0,1,1.4,1.2,11.825,11.825,0,0,1,2.2,2.8,16.581,16.581,0,0,1,1.5,3.3,15.012,15.012,0,0,1,.5,3.7v3.2a15.023,15.023,0,0,1-1,5.2,13.714,13.714,0,0,1-2.9,4.2,13.044,13.044,0,0,1-4.3,2.9A11.3,11.3,0,0,1,134.2,53.1Zm-14.9-2h15a10.489,10.489,0,0,0,4.4-.9,11.349,11.349,0,0,0,3.6-2.4,9.9,9.9,0,0,0,2.4-3.6,11.174,11.174,0,0,0,.9-4.4V36.6a10.125,10.125,0,0,0-.4-3.1,13.9,13.9,0,0,0-1.2-2.8,11.169,11.169,0,0,0-1.9-2.4,10.766,10.766,0,0,0-2.4-1.8l-1.7-.9,1.7-.9a10.766,10.766,0,0,0,2.4-1.8,11.169,11.169,0,0,0,1.9-2.4,9.874,9.874,0,0,0,1.2-2.8,11,11,0,0,0,.4-3.1v-.5a10.489,10.489,0,0,0-.9-4.4,11.349,11.349,0,0,0-2.4-3.6,12.593,12.593,0,0,0-3.6-2.4,11.174,11.174,0,0,0-4.4-.9h-15Zm51-1.6h-3.2a7.824,7.824,0,0,1-3.5-.7,9.721,9.721,0,0,1-2.9-1.9,9.989,9.989,0,0,1-2-2.9,8.424,8.424,0,0,1-.7-3.5V13.4a7.824,7.824,0,0,1,.7-3.5,9.423,9.423,0,0,1,2-2.9,8.123,8.123,0,0,1,2.9-1.9,8.424,8.424,0,0,1,3.5-.7h3.2a7.824,7.824,0,0,1,3.5.7A11.18,11.18,0,0,1,176.7,7a8.123,8.123,0,0,1,1.9,2.9,8.424,8.424,0,0,1,.7,3.5V40.5a7.824,7.824,0,0,1-.7,3.5,11.181,11.181,0,0,1-1.9,2.9,9.989,9.989,0,0,1-2.9,2A9.509,9.509,0,0,1,170.3,49.5ZM167.2,6.3a5.954,5.954,0,0,0-2.7.6,9.13,9.13,0,0,0-2.3,1.5,6.623,6.623,0,0,0-1.5,2.2,6.264,6.264,0,0,0-.6,2.7V40.4a5.954,5.954,0,0,0,.6,2.7,9.13,9.13,0,0,0,1.5,2.3,7,7,0,0,0,5,2h3.2a7.635,7.635,0,0,0,2.7-.5,8.554,8.554,0,0,0,2.2-1.5,7.635,7.635,0,0,0,1.5-2.3,6.264,6.264,0,0,0,.6-2.7v-27a5.954,5.954,0,0,0-.6-2.7,7.123,7.123,0,0,0-1.5-2.2A8.554,8.554,0,0,0,173.1,7a6.184,6.184,0,0,0-2.7-.5h-3.2ZM134,48.8H121.8V26.7H134a7.824,7.824,0,0,1,3.5.7,11.18,11.18,0,0,1,2.9,1.9,9.989,9.989,0,0,1,2,2.9,8.424,8.424,0,0,1,.7,3.5v4a7.824,7.824,0,0,1-.7,3.5,8.374,8.374,0,0,1-2,2.9,8.123,8.123,0,0,1-2.9,1.9A6.708,6.708,0,0,1,134,48.8Zm-10.2-2H134a7.635,7.635,0,0,0,2.7-.5,9.131,9.131,0,0,0,2.3-1.5,6.623,6.623,0,0,0,1.5-2.2,6.264,6.264,0,0,0,.6-2.7v-4a5.954,5.954,0,0,0-.6-2.7A8.554,8.554,0,0,0,139,31a7.635,7.635,0,0,0-2.3-1.5A6.184,6.184,0,0,0,134,29H123.8ZM134,24.4H121.8V5H134a7.824,7.824,0,0,1,3.5.7,8.373,8.373,0,0,1,2.9,2,9.989,9.989,0,0,1,2,2.9,8.424,8.424,0,0,1,.7,3.5v1.2a7.824,7.824,0,0,1-.7,3.5,8.373,8.373,0,0,1-2,2.9,9.989,9.989,0,0,1-2.9,2A7.824,7.824,0,0,1,134,24.4Zm-10.2-2H134a7.635,7.635,0,0,0,2.7-.5,9.13,9.13,0,0,0,2.3-1.5,6.128,6.128,0,0,0,1.5-2.3,6.264,6.264,0,0,0,.6-2.7V14.2a5.954,5.954,0,0,0-.6-2.7A9.13,9.13,0,0,0,139,9.2a6.128,6.128,0,0,0-2.3-1.5A4.953,4.953,0,0,0,134,7H123.8Z"/>
    </g>
    <g id="Group_299" data-name="Group 299" transform="translate(64 111.9)">
      <path id="Path_767" data-name="Path 767" class="cls-1" d="M252.3.8v.9h2V7h1V1.7h2V.8Zm10.4,0-1.5,5-1.6-5h-1.5V7h1V1.7L260.8,7h.9l1.6-5.2V7h1V.8Z"/>
    </g>
  </g>
</svg>
